<?xml version="1.0" encoding="utf-8"?>
<!-- Generator: Adobe Illustrator 25.0.0, SVG Export Plug-In . SVG Version: 6.00 Build 0)  -->
<svg version="1.1" id="Слой_1" xmlns="http://www.w3.org/2000/svg" xmlns:xlink="http://www.w3.org/1999/xlink" x="0px" y="0px"
	 viewBox="0 0 595.3 841.9" style="enable-background:new 0 0 595.3 841.9;" xml:space="preserve">
<style type="text/css">
	.st0{fill:#787878;}
</style>
<g>
	<path class="st0" d="M195.8,299.4c32.5,0,63,12.6,85.9,35.6c23,23,35.6,53.5,35.6,85.9s-12.6,63-35.6,85.9
		c-23,23-53.5,35.6-85.9,35.6s-63-12.6-85.9-35.6c-23-23-35.6-53.5-35.6-85.9s12.6-63,35.6-85.9
		C132.8,312.1,163.4,299.4,195.8,299.4 M195.8,285.4c-74.9,0-135.5,60.7-135.5,135.5S121,556.5,195.8,556.5S331.3,495.8,331.3,421
		S270.7,285.4,195.8,285.4L195.8,285.4z"/>
	<path class="st0" d="M413.5,303.9c25.3,0,53.5,48.1,53.5,117s-28.2,117-53.5,117s-53.5-48.1-53.5-117S388.2,303.9,413.5,303.9
		 M413.5,289.9c-37.3,0-67.5,58.7-67.5,131s30.2,131,67.5,131s67.5-58.7,67.5-131S450.8,289.9,413.5,289.9L413.5,289.9z"/>
	<path class="st0" d="M512.5,334.2c1.2,4.5,2.5,10.3,3.7,17.8c3.1,19.3,4.8,43.8,4.8,68.9s-1.7,49.6-4.8,68.9
		c-1.2,7.5-2.5,13.3-3.7,17.8c-1.2-4.5-2.5-10.3-3.7-17.8c-3.1-19.3-4.8-43.8-4.8-68.9s1.7-49.6,4.8-68.9
		C510,344.5,511.3,338.7,512.5,334.2 M512.5,307.9c-12.4,0-22.5,50.6-22.5,113s10.1,113,22.5,113c12.4,0,22.5-50.6,22.5-113
		S524.9,307.9,512.5,307.9L512.5,307.9z"/>
</g>
</svg>
